<svg xmlns="http://www.w3.org/2000/svg" viewBox="0 0 100 100">
  <path d="M33 17H50V39H33C27 39 22 34 22 28C22 22 27 17 33 17Z" fill="#F24E1E" />
  <path d="M67 17C73 17 78 22 78 28C78 34 73 39 67 39H50V17H67Z" fill="#FF7262" />
  <path d="M33 39H50V61H33C27 61 22 56 22 50C22 44 27 39 33 39Z" fill="#A259FF" />
  <path d="M67 39C73 39 78 44 78 50C78 56 73 61 67 61C61 61 56 56 56 50C56 44 61 39 67 39Z" fill="#1ABCFE" />
  <path d="M33 61H50V83C50 89 45 94 39 94C33 94 28 89 28 83C28 77 33 72 39 72C40 72 42 72 44 73.5" fill="#0ACF83" />
</svg>
