<svg xmlns="http://www.w3.org/2000/svg" viewBox="0 0 100 100">
  <path d="M50 15C38 15 35 20 35 28V38H51V41H25C17 41 15 47 15 55C15 63 18 70 25 70H33V58C33 51 39 45 47 45H63C71 45 75 41 75 33V28C75 19 67 15 50 15ZM40 22C42 22 44 24 44 27C44 29 42 31 40 31C37 31 35 29 35 27C35 24 37 22 40 22Z" fill="#366A96" />
  <path d="M50 85C62 85 65 80 65 72V62H49V59H75C83 59 85 53 85 45C85 37 82 30 75 30H67V42C67 49 61 55 53 55H37C29 55 25 59 25 67V72C25 81 33 85 50 85ZM60 78C58 78 56 76 56 73C56 71 58 69 60 69C63 69 65 71 65 73C65 76 63 78 60 78Z" fill="#FFD43B" />
</svg>
